<svg id="Capa_1" enable-background="new 0 0 510 510" height="512" viewBox="0 0 510 510" width="512" xmlns="http://www.w3.org/2000/svg" xmlns:xlink="http://www.w3.org/1999/xlink"><linearGradient id="lg1"><stop offset="0" stop-color="#f8f6f7"/><stop offset=".1788" stop-color="#f8f6f7"/><stop offset="1" stop-color="#e7e6f5"/></linearGradient><linearGradient id="SVGID_1_" gradientUnits="userSpaceOnUse" x1="121.005" x2="164.503" xlink:href="#lg1" y1="436.829" y2="436.829"/><linearGradient id="SVGID_2_" gradientUnits="userSpaceOnUse" x1="286.339" x2="329.836" xlink:href="#lg1" y1="436.829" y2="436.829"/><linearGradient id="lg2"><stop offset="0" stop-color="#814aa0"/><stop offset=".4701" stop-color="#5b3374"/><stop offset="1" stop-color="#192a7d"/></linearGradient><linearGradient id="SVGID_3_" gradientUnits="userSpaceOnUse" x1="97.199" x2="352.09" xlink:href="#lg2" y1="369.787" y2="369.787"/><linearGradient id="SVGID_4_" gradientUnits="userSpaceOnUse" x1="76.5" x2="213.443" xlink:href="#lg2" y1="369.788" y2="369.788"/><linearGradient id="SVGID_5_" gradientUnits="userSpaceOnUse" x1="11.629" x2="363.203" xlink:href="#lg2" y1="210.86" y2="210.86"/><linearGradient id="SVGID_6_" gradientUnits="userSpaceOnUse" x1="-41" x2="274.002" xlink:href="#lg2" y1="210.86" y2="210.86"/><linearGradient id="lg3"><stop offset="0" stop-color="#feb237"/><stop offset="1" stop-color="#fd6930"/></linearGradient><linearGradient id="SVGID_7_" gradientUnits="userSpaceOnUse" x1="333.891" x2="567.613" xlink:href="#lg3" y1="296.926" y2="296.926"/><linearGradient id="SVGID_8_" gradientUnits="userSpaceOnUse" x1="255.429" x2="577.803" xlink:href="#lg3" y1="151.199" y2="151.199"/><linearGradient id="SVGID_9_" gradientUnits="userSpaceOnUse" x1="153" x2="490.716" xlink:href="#lg3" y1="151.199" y2="151.199"/><linearGradient id="lg4"><stop offset="0" stop-color="#fff9df"/><stop offset=".593" stop-color="#ffe177"/><stop offset="1" stop-color="#feb237"/></linearGradient><linearGradient id="SVGID_10_" gradientUnits="userSpaceOnUse" x1="256.667" x2="369.617" xlink:href="#lg4" y1="419.324" y2="419.324"/><linearGradient id="lg5"><stop offset="0" stop-color="#ffe177"/><stop offset="1" stop-color="#feb237"/></linearGradient><linearGradient id="SVGID_11_" gradientUnits="userSpaceOnUse" x1="285.5" x2="415.035" xlink:href="#lg5" y1="419.323" y2="419.323"/><linearGradient id="SVGID_12_" gradientUnits="userSpaceOnUse" x1="145.744" x2="431.144" xlink:href="#lg4" y1="300.91" y2="300.91"/><linearGradient id="SVGID_13_" gradientUnits="userSpaceOnUse" x1="206" x2="455.65" xlink:href="#lg5" y1="300.91" y2="300.91"/><g><path d="m152.01 510c-4.541 0-8.919-2.481-11.133-6.8l-5.23-10.2c-15.261-29.758-18.728-63.891-9.761-96.111l6.701-24.077c1.851-6.65 8.741-10.547 15.394-8.69 6.651 1.851 10.542 8.743 8.691 15.394l-6.701 24.077c-7.277 26.148-4.464 53.851 7.921 78.001l5.231 10.2c3.15 6.144.724 13.677-5.419 16.827-1.826.935-3.774 1.379-5.694 1.379z" fill="url(#SVGID_1_)"/><path d="m317.344 510c-4.541 0-8.919-2.481-11.133-6.8l-5.23-10.2c-15.261-29.758-18.728-63.891-9.761-96.111l6.701-24.077c1.851-6.65 8.741-10.547 15.394-8.69 6.651 1.851 10.542 8.743 8.691 15.394l-6.701 24.077c-7.277 26.148-4.464 53.851 7.921 78.001l5.231 10.2c3.15 6.144.724 13.677-5.419 16.827-1.826.935-3.775 1.379-5.694 1.379z" fill="url(#SVGID_2_)"/><g><path d="m111.128 405.847c21.435 10.013 45.567 10.013 67.002 0 4.542-2.122 7.499-7.084 7.499-12.585v-.017c0-23.248-9.968-45.09-26.81-58.743l-7.015-5.687c-4.279-3.469-10.069-3.466-14.346.006l-7.055 5.728c-16.82 13.656-26.774 35.483-26.774 58.713 0 5.501 2.957 10.463 7.499 12.585z" fill="url(#SVGID_3_)"/><path d="m158.819 334.506-7.015-5.687c-4.279-3.469-10.069-3.466-14.346.005l-5.325 4.323 1.675 1.358c16.842 13.653 26.81 35.494 26.81 58.743v.017c0 5.5-2.957 10.463-7.499 12.585-6.785 3.17-13.841 5.333-20.995 6.496 15.447 2.511 31.357.348 46.006-6.496 4.542-2.122 7.499-7.084 7.499-12.585v-.017c0-23.248-9.968-45.089-26.81-58.742z" fill="url(#SVGID_4_)"/><path d="m289.259 190.596c0 79.877-64.753 185.158-144.629 185.158s-144.63-105.282-144.63-185.158 64.753-144.63 144.629-144.63 144.63 64.753 144.63 144.63z" fill="url(#SVGID_5_)"/><path d="m144.629 45.966c-6.791 0-13.469.479-20.01 1.384 40.215 5.567 75.14 27.669 97.704 59.217-.665 3.338-1.215 6.718-1.624 10.142-.63 5.22-.95 10.53-.95 15.91 0 16.257 2.937 33.661 8.289 50.904-46.237 18.913-78.809 64.346-78.809 117.386 0 16.49 3.15 32.24 8.87 46.69.013.032.026.065.039.097 2.263 5.699.037 12.223-5.352 15.149-9.013 4.893-18.435 8.544-28.167 10.689 6.542 1.442 13.219 2.219 20.01 2.219 79.877 0 144.629-105.282 144.629-185.158s-64.752-144.629-144.629-144.629z" fill="url(#SVGID_6_)"/></g><g><path d="m346.664 329.992c19.655 9.181 41.783 9.181 61.437 0 4.165-1.946 6.876-6.496 6.876-11.539v-.015c0-21.318-9.14-41.345-24.583-53.864l-6.433-5.215c-3.923-3.181-9.233-3.179-13.154.005l-6.469 5.252c-15.423 12.522-24.55 32.536-24.55 53.837 0 5.043 2.711 9.593 6.876 11.539z" fill="url(#SVGID_7_)"/><path d="m510 132.617c0 73.243-59.375 169.78-132.617 169.78s-132.617-96.538-132.617-169.78 59.374-132.617 132.617-132.617 132.617 59.375 132.617 132.617z" fill="url(#SVGID_8_)"/><path d="m377.383 0c-6.802 0-13.484.514-20.01 1.502 63.748 9.648 112.607 64.675 112.607 131.115s-48.859 152.047-112.607 167.375c6.526 1.569 13.208 2.405 20.01 2.405 73.243 0 132.617-96.538 132.617-169.78s-59.375-132.617-132.617-132.617z" fill="url(#SVGID_9_)"/></g><g><path d="m267.522 455.385c21.435 10.013 45.567 10.013 67.002 0 4.542-2.122 7.499-7.084 7.499-12.585v-.017c0-23.248-9.968-45.09-26.81-58.743l-7.015-5.687c-4.279-3.469-10.069-3.466-14.346.006l-7.055 5.728c-16.82 13.656-26.774 35.483-26.774 58.713 0 5.501 2.957 10.463 7.499 12.585z" fill="url(#SVGID_10_)"/><path d="m315.213 384.041-7.015-5.687c-4.279-3.469-10.069-3.466-14.346.005l-5.325 4.323 1.675 1.358c16.842 13.653 26.81 35.494 26.81 58.743v.017c0 5.5-2.957 10.463-7.499 12.585-6.785 3.17-13.841 5.333-20.995 6.496 15.447 2.511 31.357.348 46.006-6.496 4.542-2.122 7.499-7.084 7.499-12.585v-.017c0-23.248-9.968-45.089-26.81-58.742z" fill="url(#SVGID_11_)"/><circle cx="301.023" cy="300.91" fill="url(#SVGID_12_)" r="126.78"/></g><path d="m301.023 174.13c-6.81 0-13.491.544-20.01 1.577 60.51 9.595 106.77 61.994 106.77 125.203s-46.26 115.608-106.77 125.203c6.519 1.034 13.201 1.577 20.01 1.577 70.019 0 126.78-56.761 126.78-126.78s-56.761-126.78-126.78-126.78z" fill="url(#SVGID_13_)"/></g></svg>