<?xml version="1.0" encoding="iso-8859-1"?>
<!-- Generator: Adobe Illustrator 19.0.0, SVG Export Plug-In . SVG Version: 6.00 Build 0)  -->
<svg version="1.1" id="Layer_1" xmlns="http://www.w3.org/2000/svg" xmlns:xlink="http://www.w3.org/1999/xlink" x="0px" y="0px"
	 viewBox="0 0 512.001 512.001" style="enable-background:new 0 0 512.001 512.001;" xml:space="preserve">
<g>
	<path style="fill:#006098;" d="M456.36,250.658c0-36.322-29.446-65.767-65.768-65.767c-1.75,0-3.477,0.089-5.194,0.224
		c-11.044-20.803-32.919-34.977-58.114-34.977c-36.323,0-65.767,29.445-65.767,65.766s29.445,65.767,65.767,65.767
		c1.749,0,3.477-0.088,5.194-0.222c2.081,3.917,4.536,7.605,7.333,11.001c-9.361,11.363-14.985,25.921-14.985,41.793
		c0,36.323,29.444,65.767,65.766,65.767c36.322,0,65.768-29.445,65.768-65.767c0-15.871-5.624-30.43-14.986-41.793
		C450.735,281.088,456.36,266.531,456.36,250.658z"/>
	<path style="fill:#006098;" d="M184.718,281.673c36.322,0,65.767-29.446,65.767-65.767s-29.446-65.766-65.767-65.766
		c-25.195,0-47.071,14.174-58.115,34.977c-1.715-0.136-3.444-0.224-5.194-0.224c-36.322,0-65.768,29.446-65.768,65.767
		c0,15.873,5.624,30.429,14.987,41.793c-9.362,11.363-14.987,25.921-14.987,41.793c0,36.323,29.446,65.767,65.768,65.767
		c36.322,0,65.766-29.445,65.766-65.767c0-15.871-5.623-30.43-14.986-41.793c2.799-3.396,5.254-7.085,7.335-11.001
		C181.239,281.584,182.968,281.673,184.718,281.673z"/>
</g>
<path style="fill:#EED898;" d="M409.488,350.436c0,84.768-68.719,153.487-153.487,153.487s-153.489-68.719-153.489-153.487v-25.945
	c0-84.767,68.719-153.487,153.487-153.487s153.489,68.72,153.489,153.487V350.436z"/>
<g>
	<circle style="fill:#EE9BAC;" cx="362.849" cy="342.679" r="28.935"/>
	<circle style="fill:#EE9BAC;" cx="149.146" cy="342.679" r="28.935"/>
</g>
<path style="fill:#00BCB4;" d="M256.001,469.272c-57.82,0-104.861-47.042-104.861-104.861c0-12.41,10.061-22.469,22.471-22.469
	s22.47,10.059,22.47,22.469c0,33.041,26.881,59.921,59.92,59.921s59.921-26.88,59.921-59.921c0-12.41,10.059-22.469,22.47-22.469
	c12.41,0,22.471,10.059,22.471,22.469C360.861,422.232,313.82,469.272,256.001,469.272z"/>
<path style="fill:#008780;" d="M256.001,450.547c-47.495,0-86.134-38.639-86.134-86.134c0-2.07,1.677-3.745,3.744-3.745
	c2.069,0,3.744,1.676,3.744,3.745c0,43.365,35.28,78.646,78.645,78.646c43.365,0,78.645-35.279,78.645-78.645
	c0-2.07,1.677-3.745,3.744-3.745c2.068,0,3.744,1.676,3.744,3.745C342.135,411.907,303.496,450.547,256.001,450.547z"/>
<g>
	<circle style="fill:#1E252B;" cx="174.226" cy="281.675" r="13.92"/>
	<circle style="fill:#1E252B;" cx="337.78" cy="281.675" r="13.92"/>
</g>
<circle style="fill:#D85C72;" cx="256.003" cy="323.942" r="39.952"/>
<circle style="fill:#EE9BAC;" cx="226.227" cy="40.401" r="32.327"/>
<circle style="fill:#D85C72;" cx="226.227" cy="40.401" r="17.58"/>
<rect x="200.038" y="95.69" style="fill:#65513C;" width="111.918" height="63.707"/>
<rect x="200.038" y="139.217" style="fill:#FFB819;" width="111.918" height="20.179"/>
<rect x="183.885" y="159.397" style="fill:#65513C;" width="144.224" height="29.482"/>
<path style="fill:#022A3A;" d="M256.001,371.961c26.48,0,48.024-21.543,48.024-48.024s-21.543-48.025-48.024-48.025
	c-26.48,0-48.024,21.544-48.024,48.025C207.977,350.418,229.519,371.961,256.001,371.961z M256.001,292.066
	c17.573,0,31.871,14.298,31.871,31.872c0,17.573-14.296,31.871-31.871,31.871c-17.573,0-31.871-14.296-31.871-31.871
	C224.13,306.363,238.426,292.066,256.001,292.066z M338.093,357.112c-4.46,0-8.076,3.616-8.076,8.076
	c0,40.813-33.204,74.017-74.017,74.017c-40.813,0-74.017-33.204-74.017-74.017c0-4.46-3.616-8.076-8.076-8.076
	c-4.46,0-8.076,3.616-8.076,8.076c0,49.72,40.45,90.17,90.17,90.17s90.17-40.45,90.17-90.17
	C346.17,360.728,342.555,357.112,338.093,357.112z M464.436,250.658c0-40.717-33.126-73.844-73.845-73.844
	c-0.218,0-0.437,0.001-0.659,0.003c-13.451-21.564-37.004-34.756-62.65-34.756c-2.423,0-4.842,0.125-7.246,0.36V95.694
	c0-4.46-3.616-8.076-8.076-8.076h-23.681V75.403c0-15.225-8.499-28.969-21.673-35.891C266.13,17.645,248.206,0,226.227,0
	c-22.278,0-40.402,18.124-40.402,40.401c0,22.278,18.124,40.403,40.402,40.403c16.524,0,30.755-9.977,37.007-24.22
	c5.509,4.542,8.891,11.38,8.891,18.819v12.215H200.04c-4.46,0-8.076,3.616-8.076,8.076v46.728c-2.405-0.235-4.823-0.36-7.246-0.36
	c-25.647,0-49.199,13.192-62.649,34.756c-0.222-0.002-0.442-0.003-0.659-0.003c-40.718,0-73.845,33.126-73.845,73.844
	c0,14.938,4.567,29.552,12.964,41.793c-8.397,12.24-12.964,26.855-12.964,41.793c0,34.554,23.594,64.023,56.749,71.838
	c22.726,61.754,82.145,105.918,151.687,105.918s128.961-44.164,151.687-105.918c33.154-7.816,56.749-37.283,56.749-71.838
	c0-14.938-4.567-29.552-12.964-41.793C459.869,280.211,464.436,265.596,464.436,250.658z M226.227,64.651
	c-13.37,0-24.249-10.878-24.249-24.25c0.001-13.37,10.878-24.248,24.249-24.248c13.37,0,24.248,10.877,24.248,24.248
	C250.475,53.772,239.598,64.651,226.227,64.651z M208.117,103.771h95.768v47.549h-95.768V103.771z M191.965,167.473h128.07v13.329
	h-128.07V167.473z M98.686,387.308c-20.865-8.87-34.968-29.446-34.968-53.064c0-13.352,4.667-26.37,13.143-36.656
	c2.457-2.983,2.457-7.288,0-10.271c-8.476-10.287-13.143-23.305-13.143-36.658c0-31.811,25.88-57.691,57.692-57.691
	c1.368,0,2.859,0.066,4.559,0.199c3.209,0.246,6.26-1.423,7.767-4.264c8.639-16.27,24.288-27.236,42.101-29.996
	c-0.01,0.163-0.025,0.324-0.025,0.49v24.83c-50.282,28.79-81.376,82.187-81.376,140.265v25.945
	C94.436,363.117,95.909,375.461,98.686,387.308z M401.412,350.436c0,80.18-65.231,145.411-145.411,145.411
	s-145.412-65.231-145.412-145.411v-25.945c0-53.145,28.925-101.945,75.524-127.536h139.755
	c46.637,25.596,75.543,74.287,75.543,127.536v25.945H401.412z M435.14,297.587c8.476,10.286,13.143,23.305,13.143,36.656
	c0,23.618-14.103,44.193-34.968,53.064c2.776-11.847,4.249-24.191,4.249-36.872v-25.944c0-58.188-31.059-111.486-81.375-140.279
	v-24.816c0-0.166-0.015-0.327-0.025-0.49c17.813,2.761,33.462,13.726,42.101,29.996c1.509,2.842,4.555,4.505,7.767,4.264
	c1.7-0.135,3.191-0.199,4.558-0.199c31.811,0,57.692,25.88,57.692,57.691c0,13.352-4.668,26.37-13.143,36.658
	C432.683,290.299,432.683,294.605,435.14,297.587z"/>
<g>
</g>
<g>
</g>
<g>
</g>
<g>
</g>
<g>
</g>
<g>
</g>
<g>
</g>
<g>
</g>
<g>
</g>
<g>
</g>
<g>
</g>
<g>
</g>
<g>
</g>
<g>
</g>
<g>
</g>
</svg>
