<svg id="Layer_1" enable-background="new 0 0 511.502 511.502" height="512" viewBox="0 0 511.502 511.502" width="512" xmlns="http://www.w3.org/2000/svg"><g><path d="m165.666.329c-91.349 0-165.666 74.317-165.666 165.666 0 91.348 74.317 165.665 165.666 165.665s165.666-74.317 165.666-165.665c0-91.349-74.317-165.666-165.666-165.666z" fill="#ff464a"/><path d="m165.666.329c-.002 0-.003 0-.005 0v331.331h.005c91.349 0 165.666-74.317 165.666-165.665 0-91.349-74.317-165.666-165.666-165.666z" fill="#fb2b2c"/><path d="m91.206 107.73h34.032v34.031h-34.032z" fill="#be0d0d"/><g><path d="m213.584 248.381c-11.47-16.875-28.949-26.541-47.976-26.541-.066 0-.13 0-.196 0-19.042.066-36.394 9.709-47.605 26.454l-24.928-16.691c16.852-25.168 43.251-39.66 72.429-39.762.102-.001.205-.001.307-.001 29.12 0 55.633 14.448 72.78 39.676z" fill="#be0d0d"/></g><path d="m165.661 191.841v30.001c19.006.018 36.464 9.68 47.923 26.539l24.811-16.865c-17.139-25.214-43.632-39.66-72.734-39.675z" fill="#a80000"/><path d="m205.706 107.73h34.032v34.031h-34.032z" fill="#be0d0d"/><path d="m345.836 179.841c-91.349 0-165.666 74.317-165.666 165.666s74.317 165.666 165.666 165.666 165.666-74.317 165.666-165.666-74.317-165.666-165.666-165.666z" fill="#8ade81"/><path d="m345.836 179.841c-.001 0-.002 0-.003 0v331.332h.003c91.349 0 165.666-74.317 165.666-165.666s-74.317-165.666-165.666-165.666z" fill="#00d962"/><g><path d="m346.172 433.273c-.104 0-.204 0-.308-.001-29.226-.102-55.669-14.618-72.549-39.828l24.928-16.691c11.24 16.787 28.636 26.453 47.726 26.52.064.001.132.001.196.001 19.077 0 36.597-9.688 48.097-26.607l24.811 16.865c-17.177 25.268-43.735 39.741-72.901 39.741z" fill="#00c184"/></g><path d="m271.957 286.409h34.032v34.032h-34.032z" fill="#00c184"/><path d="m386.457 286.409h34.032v34.032h-34.032z" fill="#00c184"/><path d="m205.706 107.73h34.032v34.031h-34.032z" fill="#a80000"/><g fill="#00aa6a"><path d="m386.457 286.409h34.032v34.032h-34.032z"/><path d="m394.262 376.666c-11.5 16.919-29.02 26.607-48.097 26.607-.064 0-.132 0-.196-.001-.045 0-.09-.005-.136-.005v30.004c.01 0 .021.001.031.001.104.001.204.001.308.001 29.166 0 55.725-14.474 72.9-39.742z"/></g></g></svg>