<svg id="Capa_1" enable-background="new 0 0 512 512" height="512" viewBox="0 0 512 512" width="512" xmlns="http://www.w3.org/2000/svg"><g><path d="m17.96 202.5c-6.379 0-11.084-6.033-9.451-12.2 8.523-32.19 23.16-61.894 42.592-87.793.315-.42 2.019-.839 2.336-1.257 2.513-3.307 4.445-5.009 7.113-8.188.394-.47.063-2.481.461-2.948 46.957-55.14 116.888-90.114 194.989-90.114 118.718 0 218.562 80.811 247.524 190.426 1.613 6.104-3.04 12.074-9.353 12.074z" fill="#40c1fa"/><path d="m98.969 202.5c-5.119 0-8.894-4.842-7.584-9.79 23.276-87.911 103.372-152.71 198.603-152.71 95.268 0 175.389 64.848 198.631 152.811 1.294 4.898-2.44 9.689-7.506 9.689z" fill="#72d1fb"/><path d="m231 126.755h-73.697c-8.284 0-15-6.716-15-15 0-8.284 6.716-15 15-15h73.697c8.284 0 15 6.716 15 15 0 8.284-6.716 15-15 15zm184.5-4.755c0-8.284-6.716-15-15-15h-54.864c-8.284 0-15 6.716-15 15 0 8.284 6.716 15 15 15h54.864c8.284 0 15-6.716 15-15zm-75.336-74.659c-5.909 0-10.7-4.79-10.7-10.7v-4.3c0-8.284-6.716-15-15-15h-22.297c-8.284 0-15 6.716-15 15v4.3c0 5.909-4.79 10.7-10.7 10.7-8.284 0-15 6.716-15 15 0 8.284 6.716 15 15 15h73.698c8.284 0 15-6.716 15-15-.001-8.285-6.717-15-15.001-15z" fill="#93dcfc"/><path d="m8.589 190h494.822c5.603 21.056 8.589 43.179 8.589 66 0 11.363-.74 22.553-2.175 33.525-1.532 11.709-11.497 20.475-23.307 20.475h-473.279c-4.405 0-8.222-3.123-9.018-7.456-2.772-15.093-4.221-30.649-4.221-46.544 0-22.821 2.986-44.944 8.589-66z" fill="#ffe7c0"/><path d="m44.239 310h-31c-4.405 0-8.222-3.123-9.018-7.456-2.772-15.093-4.221-30.649-4.221-46.544 0-22.821 2.986-44.944 8.589-66h31c-5.603 21.056-8.589 43.179-8.589 66 0 15.895 1.449 31.451 4.221 46.544.796 4.333 4.612 7.456 9.018 7.456z" fill="#ffd993"/><path d="m187.5 118.074v184.426c0 4.143-3.358 7.5-7.5 7.5s-7.5-3.357-7.5-7.5v-184.426c0-18.237-14.837-33.074-33.074-33.074-.595 0-6.079-.069-6.635-.2-3.308-.781-5.77-3.752-5.77-7.3 0-3.477 2.365-6.4 5.574-7.25.615-.163 6.142-.273 6.807-.273 26.509 0 48.098 21.589 48.098 48.097z" fill="#0a4499"/><path d="m70 118.074v184.426c0 4.143-3.358 7.5-7.5 7.5s-7.5-3.357-7.5-7.5v-184.426c0-5.625-1.412-10.925-3.899-15.567 3.177-4.234 6.482-8.367 9.91-12.392 5.656 7.883 8.989 17.539 8.989 27.959z" fill="#0a4499"/><path d="m25.166 366.822c-9.798-20.371-16.979-42.239-21.106-65.167 10.644-.889 20.827-4.003 30.285-8.994 30.659-16.178 67.698-16.892 98.192-.407 11.523 6.229 24.143 9.665 37.374 9.665 13.23 0 25.85-3.435 37.373-9.664 30.228-16.34 67.205-16.34 97.433 0 11.523 6.229 24.143 9.664 37.373 9.664s25.851-3.435 37.374-9.665c30.495-16.485 67.534-15.772 98.192.407 9.458 4.991-20.848 79.348-31.847 77.434-22.458-3.909-45.876-.592-66.346 10.473-11.523 6.229-24.143 9.665-37.374 9.665-13.23 0-25.85-3.435-37.373-9.664-30.228-16.34-67.205-16.34-97.433 0-11.523 6.229-24.143 9.664-37.373 9.664s-25.851-3.435-37.374-9.665c-26.487-14.318-57.911-15.662-85.803-5.167-4.22 1.589-19.136-3.525-21.567-8.579z" fill="#2476ed"/><path d="m62.34 423.433c-14.755-17.051-27.296-36.07-37.175-56.612 3.065-1.168 6.068-2.526 9.001-4.066 30.874-16.199 67.895-16.847 98.619-.367 11.456 6.145 23.99 9.531 37.126 9.531 13.23 0 25.85-3.435 37.372-9.664 30.474-16.473 66.96-16.473 97.434 0 11.523 6.229 24.142 9.664 37.372 9.664s25.851-3.435 37.374-9.665c17.4-9.406 36.93-13.213 56.19-11.743 14.495 1.107 28.837 5.202 42.003 12.149 2.99 1.578-54.016 66.3-63.756 67.599-11.919 1.59-23.592 5.277-34.437 11.14-11.523 6.229-24.143 9.665-37.374 9.665-13.23 0-25.85-3.435-37.372-9.664-30.474-16.473-66.96-16.473-97.434 0-11.523 6.229-24.142 9.664-37.372 9.664s-25.851-3.435-37.374-9.665c-17.231-9.315-36.552-13.138-55.63-11.783-5.55.395-10.926-1.976-14.567-6.183z" fill="#0956c6"/><path d="m145.574 77.5c0 4.143-3.358 7.5-7.5 7.5-18.237 0-33.074 14.837-33.074 33.074v71.926h-15v-71.926c0-26.508 21.566-48.074 48.074-48.074 4.142 0 7.5 3.357 7.5 7.5z" fill="#0a3575"/><path d="m188.75 228.75c0 4.142-3.358 7.5-7.5 7.5h-115c-4.142 0-7.5-3.358-7.5-7.5s3.358-7.5 7.5-7.5h115c4.142 0 7.5 3.358 7.5 7.5zm-8.75 26.25h-115c-4.142 0-7.5 3.358-7.5 7.5s3.358 7.5 7.5 7.5h115c4.142 0 7.5-3.358 7.5-7.5s-3.358-7.5-7.5-7.5zm-112.5-52.5h115c4.142 0 7.5-3.358 7.5-7.5s-3.358-7.5-7.5-7.5h-115c-4.142 0-7.5 3.358-7.5 7.5s3.358 7.5 7.5 7.5zm1.25-33.75h105c4.142 0 7.5-3.358 7.5-7.5s-3.358-7.5-7.5-7.5h-105c-4.142 0-7.5 3.358-7.5 7.5s3.358 7.5 7.5 7.5z" fill="#0a66ea"/><path d="m509.945 288.59c-13.754-94.23-94.899-166.59-192.945-166.59-107.696 0-195 87.304-195 195 0 98.046 72.36 179.191 166.59 192.945 115.324-14.653 206.702-106.031 221.355-221.355zm-192.945-49.09c42.802 0 77.5 34.698 77.5 77.5s-34.698 77.5-77.5 77.5-77.5-34.698-77.5-77.5 34.698-77.5 77.5-77.5z" fill="#ffc14f"/><path d="m288.59 509.945c-94.23-13.754-166.59-94.899-166.59-192.945 0-67.912 34.716-127.714 87.37-162.63-20.455 30.845-32.37 67.846-32.37 107.63 0 107.696 87.304 195 195 195 17.506 0 34.472-2.307 50.613-6.634-37.008 31.754-83.189 53.12-134.023 59.579z" fill="#ffa90b"/><path d="m441 204.333c-.692 6.038-4.765 13.662-11.333 16-13.795 4.911-26.583-17.772-57.333-38.667-36.272-24.647-65.607-25.111-64.667-32 .937-6.868 30.669-10.645 56-6 29.939 5.49 47.882 21.673 59.333 32 18.538 16.72 18.353 25.591 18 28.667z" fill="#ffd993"/><path d="m450.32 422.667c-46.95 54.689-116.589 89.333-194.32 89.333s-147.37-34.644-194.32-89.333c23.81-5.205 49.013-2.221 70.857 9.587 11.523 6.229 24.143 9.665 37.374 9.665 13.23 0 25.85-3.435 37.373-9.664 30.228-16.34 67.205-16.34 97.433 0 11.523 6.229 24.143 9.664 37.373 9.664s25.851-3.435 37.374-9.665c21.844-11.808 47.046-14.792 70.856-9.587z" fill="#2476ed"/></g></svg>